<?xml version="1.0" encoding="utf-8"?>
<!-- Generator: Adobe Illustrator 15.0.0, SVG Export Plug-In . SVG Version: 6.00 Build 0)  -->
<!DOCTYPE svg PUBLIC "-//W3C//DTD SVG 1.1//EN" "http://www.w3.org/Graphics/SVG/1.1/DTD/svg11.dtd">
<svg version="1.1" id="Camada_1" xmlns="http://www.w3.org/2000/svg" xmlns:xlink="http://www.w3.org/1999/xlink" x="0px" y="0px"
	 width="93.521px" height="99.289px" viewBox="0 0 93.521 99.289" enable-background="new 0 0 93.521 99.289" xml:space="preserve">
<g>
	<defs>
		<rect id="SVGID_1_" width="93.521" height="99.289"/>
	</defs>
	<clipPath id="SVGID_2_">
		<use xlink:href="#SVGID_1_"  overflow="visible"/>
	</clipPath>
	<path clip-path="url(#SVGID_2_)" fill="#1d7ad6" d="M12.421,16.728c9.5-10.9,24.1-17.2,38.6-16.7c17.5,0.3,34.5,10.6,42.5,26.3
		c-10.601,11.5-22.101,22.2-33.101,33.4c-4.5,5.1-12.6,6.1-18.4,2.6c-5.1-2.899-8-9.199-7-15c0.8-6.4,6.5-11.8,13-12.4
		c3.399-0.5,6.7,0.8,9.8,2.1c4.1-3.8,8.1-7.9,12-11.9c-11-9.8-29.1-9.7-40.3-0.3c-11.5,9-15.2,26.3-8.3,39.2
		c4.4,8.9,13.1,15.3,22.8,17.101c12.9,2.399,27-4.2,33.3-15.7c4,2.399,6.7,6.399,10.1,9.399c0.9,1.2,3.4,2.4,2.301,4.101
		c-8.601,12-22.9,19.7-37.601,20.3c-13.8,0.7-27.9-4.6-37.5-14.5c-7.6-7.4-12.6-17.3-14.1-27.8
		C-1.579,42.627,2.721,27.527,12.421,16.728"/>
</g>
</svg>
